<svg width="3200" height="3200" viewBox="0 0 3200 3200" fill="none" xmlns="http://www.w3.org/2000/svg">
<mask id="mask0_43_32" style="mask-type:luminance" maskUnits="userSpaceOnUse" x="322" y="2393" width="740" height="655">
<path d="M322.133 2393.54H1061.33V3047.26H322.133V2393.54Z" fill="white"/>
</mask>
<g mask="url(#mask0_43_32)">
<mask id="mask1_43_32" style="mask-type:luminance" maskUnits="userSpaceOnUse" x="322" y="2393" width="740" height="655">
<path fill-rule="evenodd" clip-rule="evenodd" d="M570.231 2552.5C547.107 2552.5 528.373 2569.14 528.373 2589.52C528.373 2609.97 547.186 2626.54 570.231 2626.54C593.356 2626.54 612.089 2609.9 612.089 2589.52C612.089 2569.07 593.356 2552.5 570.231 2552.5ZM570.231 2668.48C521.003 2668.48 480.948 2633.05 480.948 2589.52C480.948 2545.98 521.003 2510.56 570.231 2510.56C619.46 2510.56 659.514 2545.98 659.514 2589.52C659.514 2633.05 619.46 2668.48 570.231 2668.48ZM783.135 3047.12C750.524 3047.12 719.873 3035.96 696.908 3015.65L358.271 2716.17C310.687 2674.09 310.687 2605.74 358.271 2563.66L514.576 2425.43C537.544 2405.11 568.192 2393.96 600.803 2393.96C633.413 2393.96 664.061 2405.11 687.03 2425.43L1025.67 2724.91C1048.63 2745.22 1061.25 2772.25 1061.25 2801.16C1061.25 2830 1048.63 2857.11 1025.67 2877.42L869.362 3015.65C846.393 3035.89 815.822 3047.12 783.135 3047.12Z" fill="white"/>
</mask>
<g mask="url(#mask1_43_32)">
<path d="M-54.3289 2671.03L629.081 3375.17L1426.27 2770.05L742.863 2065.9L-54.3289 2671.03Z" fill="#222222" fill-opacity="0.8"/>
</g>
</g>
<mask id="mask2_43_32" style="mask-type:luminance" maskUnits="userSpaceOnUse" x="691" y="2089" width="1875" height="608">
<path d="M691.2 2089.08H2565.33V2696.98H691.2V2089.08Z" fill="white"/>
</mask>
<g mask="url(#mask2_43_32)">
<mask id="mask3_43_32" style="mask-type:luminance" maskUnits="userSpaceOnUse" x="691" y="2089" width="1874" height="608">
<path fill-rule="evenodd" clip-rule="evenodd" d="M691.383 2295.01C718.623 2256.36 757.848 2217.72 803.249 2185.76C906.219 2113.31 1051.23 2089.9 1184.61 2089.67C1331.53 2089.45 1432.77 2132.41 1706.18 2092.87C2009 2086.4 2128.76 2225.74 1906.93 2246.63C1742.32 2262.16 1361.13 2304.52 1306.29 2310.24C1291.12 2310.24 1278.78 2320.28 1278.78 2332.76C1278.78 2345.17 1291.03 2355.28 1306.29 2355.28L1973.49 2284.98C1977.58 2284.98 1987.39 2282.3 1991.11 2279.77L2295.56 2128.39C2526.84 2013.42 2656.13 2234.37 2489.51 2330.31L1989.2 2618.65C1969.59 2629.95 1922.55 2643.4 1731.42 2646.82C1614.74 2648.9 1478.99 2646.74 1361.67 2644.36C1310.56 2643.4 1236.37 2666.51 1181.98 2696.38L691.383 2295.01Z" fill="white"/>
</mask>
<g mask="url(#mask3_43_32)">
<path d="M437.281 2084.06L894.584 3186.05L2910.24 2625.75L2452.93 1523.76L437.281 2084.06Z" fill="#222222" fill-opacity="0.8"/>
</g>
</g>
<mask id="mask4_43_32" style="mask-type:luminance" maskUnits="userSpaceOnUse" x="458" y="1803" width="2339" height="195">
<path d="M458.667 1803.97H2796.8V1997.43H458.667V1803.97Z" fill="white"/>
</mask>
<g mask="url(#mask4_43_32)">
<mask id="mask5_43_32" style="mask-type:luminance" maskUnits="userSpaceOnUse" x="459" y="1804" width="2338" height="194">
<path fill-rule="evenodd" clip-rule="evenodd" d="M2710 1997.03H545.289C497.833 1997.03 459.122 1953.85 459.122 1900.7C459.122 1847.65 497.741 1804.37 545.289 1804.37H2710.09C2757.54 1804.37 2796.25 1847.55 2796.25 1900.7C2796.16 1953.85 2757.54 1997.03 2710 1997.03Z" fill="white"/>
</mask>
<g mask="url(#mask5_43_32)">
<path d="M448.259 1805.14L468.444 2161.7L2807.11 1996.26L2786.93 1639.7L448.259 1805.14Z" fill="#222222" fill-opacity="0.8"/>
</g>
</g>
<mask id="mask6_43_32" style="mask-type:luminance" maskUnits="userSpaceOnUse" x="819" y="31" width="1647" height="1758">
<path d="M819.712 118.78L2358.95 31L2465.42 1700.53L926.177 1788.31L819.712 118.78Z" fill="white"/>
</mask>
<g mask="url(#mask6_43_32)">
<mask id="mask7_43_32" style="mask-type:luminance" maskUnits="userSpaceOnUse" x="750" y="66" width="1642" height="1948">
<path d="M1315.74 898.219C1320.57 899.133 1322.25 899.8 1323.89 899.706C1484.6 890.579 1645.68 884.922 1805.96 871.327C2006.7 854.273 2122.22 694.264 2064.31 521.559C2024.05 401.457 1908.73 331.586 1759.02 339.035C1606.08 346.668 1453.21 356.224 1300.33 365.043C1294.55 365.373 1288.81 366.814 1281.93 367.945C1293.23 545.222 1304.46 721.266 1315.74 898.219ZM779.743 1354.48C860.819 1349.86 940.376 1345.32 1021.84 1340.68C1018.37 1286.25 1015.04 1234 1011.54 1179.03C967.282 1181.56 924.123 1184.11 880.908 1186.45C849.612 1188.14 818.311 1190.43 787.005 1190.43C779.926 1190.42 767.091 1182.4 766.702 1177.39C760.312 1096.93 755.534 1016.31 750.249 933.421C833.346 928.682 912.875 924.147 996.906 919.355C988.259 783.76 979.761 650.496 971.263 517.232C962.795 384.442 954.33 251.69 945.791 117.79C955.124 116.519 961.737 115.154 968.411 114.735C1228.2 98.9313 1487.93 82.5178 1747.81 67.7603C1864.37 61.1504 1978.09 75.5508 2081.58 125.386C2298.19 229.713 2392.79 399.287 2391.67 614.727C2391.05 742.041 2342.61 856.615 2249.06 953.564C2176.26 1029.06 2083.74 1078.55 1976.81 1107.29C1893.19 1129.74 1807.26 1133.31 1721.4 1138.49C1602.4 1145.71 1483.3 1152.16 1364.23 1158.95C1354.14 1159.52 1344.01 1160.1 1332.55 1160.75C1336.05 1215.53 1339.34 1267.23 1342.81 1321.57C1569.52 1308.64 1794.96 1295.79 2022.07 1282.84C2027.66 1370.51 2033.08 1455.55 2038.66 1543.1C1812.52 1556 1587.05 1568.86 1359.13 1581.86C1367.99 1720.83 1376.69 1857.35 1385.52 1995.75C1278.62 2001.85 1174.14 2007.8 1067.17 2013.9C1058.42 1876.75 1049.71 1740.23 1040.82 1600.81C958.158 1605.52 877.904 1610.1 796.34 1614.75C790.73 1526.77 785.306 1441.71 779.743 1354.48Z" fill="white"/>
</mask>
<g mask="url(#mask7_43_32)">
<mask id="mask8_43_32" style="mask-type:luminance" maskUnits="userSpaceOnUse" x="824" y="64" width="1568" height="1954">
<path d="M1364.69 898.5C1369.3 899.43 1370.91 900.105 1372.48 900.016C1526.01 891.298 1679.91 886.064 1833.02 872.86C2024.77 856.297 2134.67 696.025 2078.8 522.532C2039.96 401.882 1929.55 331.44 1786.53 338.503C1640.41 345.743 1494.37 354.913 1348.32 363.342C1342.79 363.658 1337.31 365.088 1330.74 366.204C1342.09 544.158 1353.36 720.872 1364.69 898.5ZM853.934 1354.95C931.39 1350.53 1007.39 1346.2 1085.22 1341.76C1081.74 1287.13 1078.39 1234.67 1074.88 1179.5C1032.6 1181.91 991.367 1184.35 950.081 1186.58C920.182 1188.2 890.281 1190.4 860.367 1190.31C853.603 1190.28 841.314 1182.2 840.927 1177.18C834.573 1096.4 829.76 1015.48 824.454 932.273C903.841 927.746 979.819 923.413 1060.1 918.835C1051.42 782.723 1042.89 648.951 1034.36 515.179C1025.86 381.883 1017.36 248.624 1008.79 114.214C1017.7 112.964 1024.02 111.612 1030.39 111.21C1278.58 96.0644 1526.71 80.3065 1774.98 66.2109C1886.33 59.898 1995.04 74.6639 2094.08 124.965C2301.38 230.268 2392.29 400.719 2391.89 616.94C2391.69 744.716 2345.75 859.573 2256.66 956.617C2187.34 1032.18 2099.08 1081.6 1997 1110.16C1917.17 1132.46 1835.07 1135.8 1753.04 1140.76C1639.35 1147.69 1525.58 1153.82 1411.82 1160.31C1402.18 1160.86 1392.5 1161.41 1381.56 1162.04C1385.06 1217.02 1388.37 1268.92 1391.85 1323.47C1608.44 1311.12 1823.82 1298.83 2040.78 1286.46C2046.39 1374.47 2051.83 1459.83 2057.44 1547.72C1841.4 1560.04 1625.99 1572.33 1408.25 1584.74C1417.14 1724.25 1425.88 1861.29 1434.74 2000.21C1332.61 2006.04 1232.8 2011.73 1130.6 2017.56C1121.82 1879.88 1113.08 1742.84 1104.16 1602.89C1025.19 1607.39 948.516 1611.76 870.594 1616.21C864.962 1527.9 859.518 1442.51 853.934 1354.95Z" fill="white"/>
</mask>
<g mask="url(#mask8_43_32)">
<path d="M82.2366 408.353L1027.09 2712.74L3098.81 1897.14L2153.97 -407.244L82.2366 408.353Z" fill="#222222"/>
</g>
</g>
</g>
</svg>
